<svg width="880" height="666" viewBox="0 0 880 666" fill="none" xmlns="http://www.w3.org/2000/svg">
<path fill-rule="evenodd" clip-rule="evenodd" d="M120.461 597.813C112.785 604.467 104.668 608.209 97.382 608.209C87.004 608.209 81.375 601.973 81.375 591.993C81.375 581.19 87.402 573.283 111.538 573.283H120.461V597.813ZM141.65 621.716V547.72C141.65 528.805 130.863 516.324 104.868 516.324C89.7 516.324 76.401 520.074 65.59 524.849L68.701 537.955C77.216 534.828 88.227 531.924 99.038 531.924C114.016 531.924 120.461 537.955 120.461 550.429V559.785H112.976C76.593 559.785 60.178 573.895 60.178 595.121C60.178 613.406 70.997 623.803 91.363 623.803C104.451 623.803 114.233 618.398 123.364 610.488L125.027 621.716H141.65Z" fill="#EA2D2E"/>
<path fill-rule="evenodd" clip-rule="evenodd" d="M212.362 621.716H185.939L154.132 518.214H177.209L196.952 581.814L201.343 600.923C211.308 573.284 218.375 545.222 221.909 518.214H244.354C238.352 552.294 227.523 589.706 212.362 621.716Z" fill="#EA2D2E"/>
<path fill-rule="evenodd" clip-rule="evenodd" d="M313.755 597.813C306.054 604.467 297.935 608.209 290.669 608.209C280.287 608.209 274.658 601.973 274.658 591.993C274.658 581.19 280.697 573.283 304.812 573.283H313.754V597.813H313.755ZM334.951 621.716V547.72C334.951 528.805 324.133 516.324 298.162 516.324C282.974 516.324 269.678 520.074 258.867 524.849L261.983 537.955C270.502 534.828 281.528 531.924 292.338 531.924C307.298 531.924 313.754 537.955 313.754 550.429V559.785H306.269C269.878 559.785 253.468 573.895 253.468 595.121C253.468 613.406 264.272 623.803 284.637 623.803C297.736 623.803 307.499 618.398 316.655 610.488L318.329 621.716H334.951Z" fill="#EA2D2E"/>
<path fill-rule="evenodd" clip-rule="evenodd" d="M36.941 639.306C30.904 648.127 21.141 655.115 10.462 659.055L0 646.731C8.135 642.553 15.103 635.819 18.345 629.549C21.141 623.96 22.305 616.776 22.305 599.578V481.398H44.824V597.949C44.824 620.95 42.988 630.249 36.941 639.306Z" fill="#EA2D2E"/>
<path d="M442.328 604.984C442.328 597.984 439.849 592.589 434.891 588.797C430.005 585.005 421.146 581.177 408.312 577.312C395.479 573.448 385.271 569.146 377.688 564.406C363.177 555.292 355.922 543.406 355.922 528.75C355.922 515.917 361.135 505.344 371.562 497.031C382.062 488.719 395.661 484.562 412.359 484.562C423.443 484.562 433.323 486.604 442 490.688C450.677 494.771 457.495 500.604 462.453 508.188C467.411 515.698 469.891 524.047 469.891 533.234H442.328C442.328 524.922 439.703 518.432 434.453 513.766C429.276 509.026 421.839 506.656 412.141 506.656C403.099 506.656 396.062 508.589 391.031 512.453C386.073 516.318 383.594 521.714 383.594 528.641C383.594 534.474 386.292 539.359 391.688 543.297C397.083 547.161 405.979 550.953 418.375 554.672C430.771 558.318 440.724 562.51 448.234 567.25C455.745 571.917 461.25 577.312 464.75 583.438C468.25 589.49 470 596.599 470 604.766C470 618.036 464.896 628.609 454.688 636.484C444.552 644.286 430.771 648.188 413.344 648.188C401.823 648.188 391.214 646.073 381.516 641.844C371.891 637.542 364.38 631.635 358.984 624.125C353.661 616.615 351 607.865 351 597.875H378.672C378.672 606.917 381.661 613.917 387.641 618.875C393.62 623.833 402.188 626.312 413.344 626.312C422.969 626.312 430.188 624.38 435 620.516C439.885 616.578 442.328 611.401 442.328 604.984Z" fill="#EA2D2E"/>
<path d="M524.723 607.008C530.647 607.008 535.562 605.283 539.469 601.832C543.375 598.382 545.458 594.117 545.719 589.039H568.082C567.822 595.615 565.771 601.767 561.93 607.496C558.089 613.16 552.88 617.652 546.305 620.973C539.729 624.293 532.633 625.953 525.016 625.953C510.237 625.953 498.518 621.168 489.859 611.598C481.201 602.027 476.871 588.811 476.871 571.949V569.508C476.871 553.427 481.168 540.569 489.762 530.934C498.355 521.233 510.074 516.383 524.918 516.383C537.483 516.383 547.704 520.061 555.582 527.418C563.525 534.71 567.691 544.312 568.082 556.227H545.719C545.458 550.172 543.375 545.191 539.469 541.285C535.628 537.379 530.712 535.426 524.723 535.426C517.04 535.426 511.116 538.225 506.949 543.824C502.783 549.358 500.667 557.789 500.602 569.117V572.926C500.602 584.384 502.652 592.945 506.754 598.609C510.921 604.208 516.91 607.008 524.723 607.008Z" fill="#EA2D2E"/>
<path d="M640.824 540.016C637.699 539.495 634.477 539.234 631.156 539.234C620.284 539.234 612.96 543.401 609.184 551.734V624H585.453V518.336H608.109L608.695 530.152C614.424 520.973 622.367 516.383 632.523 516.383C635.909 516.383 638.708 516.839 640.922 517.75L640.824 540.016Z" fill="#EA2D2E"/>
<path d="M686.816 624H663.086V518.336H686.816V624ZM661.621 490.895C661.621 487.249 662.76 484.221 665.039 481.812C667.383 479.404 670.703 478.199 675 478.199C679.297 478.199 682.617 479.404 684.961 481.812C687.305 484.221 688.477 487.249 688.477 490.895C688.477 494.475 687.305 497.47 684.961 499.879C682.617 502.223 679.297 503.395 675 503.395C670.703 503.395 667.383 502.223 665.039 499.879C662.76 497.47 661.621 494.475 661.621 490.895Z" fill="#EA2D2E"/>
<path d="M804.84 573.242C804.84 589.583 801.129 602.637 793.707 612.402C786.285 622.103 776.324 626.953 763.824 626.953C752.236 626.953 742.958 623.145 735.992 615.527V665.625H712.262V519.336H734.137L735.113 530.078C742.079 521.615 751.552 517.383 763.531 517.383C776.422 517.383 786.513 522.201 793.805 531.836C801.161 541.406 804.84 554.72 804.84 571.777V573.242ZM781.207 571.191C781.207 560.645 779.091 552.279 774.859 546.094C770.693 539.909 764.703 536.816 756.891 536.816C747.19 536.816 740.224 540.82 735.992 548.828V595.703C740.289 603.906 747.32 608.008 757.086 608.008C764.638 608.008 770.53 604.98 774.762 598.926C779.059 592.806 781.207 583.561 781.207 571.191Z" fill="#EA2D2E"/>
<path d="M855.094 490.652V516.336H873.746V533.914H855.094V592.898C855.094 596.935 855.875 599.865 857.438 601.688C859.065 603.445 861.93 604.324 866.031 604.324C868.766 604.324 871.533 603.999 874.332 603.348V621.707C868.928 623.204 863.72 623.953 858.707 623.953C840.478 623.953 831.363 613.895 831.363 593.777V533.914H813.98V516.336H831.363V490.652H855.094Z" fill="#EA2D2E"/>
<path fill-rule="evenodd" clip-rule="evenodd" d="M395.37 349.592C395.37 349.592 378.105 359.641 407.671 363.032C443.495 367.122 461.801 366.533 501.267 359.073C501.267 359.073 511.664 365.577 526.159 371.21C437.658 409.127 325.863 369.013 395.37 349.592Z" fill="#0074BD"/>
<path fill-rule="evenodd" clip-rule="evenodd" d="M384.55 300.104C384.55 300.104 365.183 314.443 394.771 317.501C433.042 321.452 463.254 321.776 515.563 311.709C515.563 311.709 522.781 319.041 534.148 323.048C427.162 354.342 308.001 325.51 384.55 300.104Z" fill="#0074BD"/>
<path fill-rule="evenodd" clip-rule="evenodd" d="M475.713 216.145C497.531 241.26 469.992 263.842 469.992 263.842C469.992 263.842 525.359 235.265 499.937 199.462C476.185 166.089 457.975 149.511 556.56 92.338C556.561 92.338 401.806 130.979 475.713 216.145Z" fill="#EA2D2E"/>
<path fill-rule="evenodd" clip-rule="evenodd" d="M592.761 386.202C592.761 386.202 605.542 396.738 578.684 404.886C527.613 420.355 366.08 425.021 321.214 405.505C305.097 398.485 335.335 388.755 344.849 386.7C354.769 384.554 360.433 384.946 360.433 384.946C342.496 372.315 244.498 409.753 310.661 420.49C491.09 449.736 639.556 407.317 592.761 386.202Z" fill="#0074BD"/>
<path fill-rule="evenodd" clip-rule="evenodd" d="M403.679 248.822C403.679 248.822 321.524 268.341 374.587 275.435C396.999 278.434 441.65 277.744 483.272 274.252C517.278 271.398 551.405 265.294 551.405 265.294C551.405 265.294 539.423 270.434 530.748 276.354C447.304 298.301 286.136 288.08 332.541 265.642C371.768 246.665 403.679 248.822 403.679 248.822Z" fill="#0074BD"/>
<path fill-rule="evenodd" clip-rule="evenodd" d="M551.065 331.198C635.883 287.135 596.662 244.786 569.288 250.49C562.594 251.887 559.591 253.097 559.591 253.097C559.591 253.097 562.085 249.19 566.834 247.509C620.989 228.479 662.628 303.655 549.37 333.428C549.369 333.428 550.672 332.248 551.065 331.198Z" fill="#0074BD"/>
<path fill-rule="evenodd" clip-rule="evenodd" d="M499.938 0C499.938 0 546.901 46.99 455.381 119.227C381.988 177.196 438.647 210.236 455.355 248.005C412.51 209.352 381.084 175.321 402.163 143.653C433.117 97.174 518.882 74.632 499.938 0Z" fill="#EA2D2E"/>
<path fill-rule="evenodd" clip-rule="evenodd" d="M412.018 450.637C493.415 455.841 618.444 447.741 621.403 409.222C621.403 409.222 615.715 423.824 554.127 435.41C484.646 448.491 398.93 446.968 348.111 438.577C348.111 438.577 358.522 447.194 412.018 450.637Z" fill="#0074BD"/>
</svg>
